<svg width="22" height="16" viewBox="0 0 22 16" fill="none" xmlns="http://www.w3.org/2000/svg">
<path d="M21.3125 8.74977C20.933 8.74977 20.625 9.05777 20.625 9.43727V14.2498H1.375V5.99977H8.9375C9.317 5.99977 9.625 5.69177 9.625 5.31227C9.625 4.93277 9.317 4.62477 8.9375 4.62477H1.375V1.87477H8.9375C9.317 1.87477 9.625 1.56677 9.625 1.18727C9.625 0.807771 9.317 0.499771 8.9375 0.499771H1.375C0.616 0.499771 0 1.11577 0 1.87477V14.2498C0 15.0088 0.616 15.6248 1.375 15.6248H20.625C21.384 15.6248 22 15.0088 22 14.2498V9.43727C22 9.05777 21.692 8.74977 21.3125 8.74977Z" fill="white"/>
</svg>
